<svg width="51" height="33" viewBox="0 0 51 33" fill="none" xmlns="http://www.w3.org/2000/svg">
<path d="M6.55863 27.9737C7.43521 27.9789 8.31178 27.9772 9.18836 27.9772H10.8084L10.8481 28.0948C11.7697 30.8196 14.2576 32.1474 16.3151 32.2529C19.5586 32.4189 21.8097 31.0201 23.0078 28.0948L23.051 27.9876H32.6882L32.7314 28.0965C33.8207 30.8749 35.821 32.2823 38.6755 32.2823C38.679 32.2823 38.6842 32.2823 38.6876 32.2823C41.6459 32.2788 43.7033 30.868 44.8012 28.0878L44.8444 27.9789H46.6149C47.5986 27.9789 48.5824 27.9806 49.5662 27.9772C50.4185 27.9755 50.9943 27.4187 50.996 26.5923C51.0029 24.317 51.0012 22.0037 50.9995 19.7664L50.9977 17.3113C50.9977 16.9569 50.8819 16.6526 50.645 16.3794C50.3978 16.0959 47.4102 13.0547 47.2425 12.7555C45.7262 10.0567 44.3015 7.27132 42.7662 4.46351C42.4118 3.81343 41.9294 3.5247 41.2033 3.5247C41.1998 3.5247 41.1946 3.5247 41.1912 3.5247C39.7198 3.53161 38.4698 3.52988 37.0244 3.52816L34.329 3.52642V3.35353C34.329 3.19101 34.329 3.03368 34.3307 2.8798C34.3324 2.54266 34.3324 2.29887 34.3272 1.97902C34.3203 1.59692 34.1578 1.27707 33.8449 1.03156C33.5336 0.786045 33.1498 0.666748 32.6744 0.666748C23.9657 0.666748 15.6062 0.666747 6.89923 0.668476C6.67101 0.668476 6.44452 0.685766 6.2284 0.720345C5.6371 0.815437 5.14608 1.32029 5.1115 1.87009C5.07346 2.48214 5.46248 2.94723 6.05896 3.11148C6.32868 3.18582 6.62433 3.1962 6.85082 3.1962C13.8444 3.19965 20.838 3.19965 27.8281 3.19965H31.8133V9.60021C31.8133 9.97194 31.8133 10.3419 31.8116 10.7137C31.8099 11.6335 31.8082 12.5826 31.8185 13.518C31.8255 14.1767 32.3251 14.7283 32.9821 14.8026C33.2363 14.832 33.5077 14.8458 33.8103 14.8458C37.5327 14.8493 41.3831 14.851 45.1677 14.8407C45.1695 14.8407 45.1712 14.8407 45.1729 14.8407C45.5464 14.8407 45.8022 14.9582 46.0287 15.2331C46.0287 15.2331 47.5986 16.6837 48.2055 17.3839L48.2401 17.4237C48.3784 17.5828 48.4545 17.7868 48.4545 17.9977C48.451 19.5797 48.4908 25.4408 48.4908 25.4408H44.8479L44.8081 25.2627C43.8001 22.1973 41.0857 21.0458 39.068 20.9922C35.9801 20.9093 33.8328 22.3339 32.6917 25.2264L32.6484 25.4391H23.0649C23.0372 25.2973 22.9957 25.1556 22.9404 25.0207C21.8408 22.3633 19.8335 21.0043 16.9738 20.9819C16.9496 20.9819 16.9254 20.9819 16.9029 20.9819C14.0104 20.9819 12.0446 22.3581 10.9242 25.076C10.8775 25.1884 10.8412 25.306 10.8136 25.4235H9.33532C8.47084 25.4235 7.60637 25.4218 6.74017 25.427C6.51368 25.4287 6.32176 25.446 6.15406 25.484C5.71317 25.5843 5.35182 25.816 5.1893 26.2171C5.04061 26.5819 5.07865 26.9779 5.28958 27.3012C5.57659 27.7472 6.00191 27.9703 6.55863 27.9737ZM34.3549 12.3026V6.09564C34.3549 6.09564 39.3602 6.06625 40.2489 6.06106C40.5705 6.0576 40.7779 6.17344 40.9266 6.44489C41.6147 7.70183 42.3236 9.05387 43.0065 10.2866L44.0802 12.3008H34.3549V12.3026ZM35.2125 26.1825C35.2868 25.4132 35.662 24.7856 36.3587 24.2651C37.0659 23.7378 37.9027 23.4854 38.8432 23.5165C39.9014 23.5511 40.7849 23.9263 41.4678 24.6299C42.028 25.2057 42.3046 25.8765 42.2925 26.6217C42.3219 28.0671 41.1497 29.3448 39.5072 29.6595C39.215 29.7148 38.928 29.7442 38.6513 29.7442C37.7108 29.7442 36.8601 29.4226 36.115 28.7846C35.3871 28.1605 35.1001 27.334 35.2125 26.1825ZM13.3603 26.4799C13.3741 25.612 13.86 24.8028 14.7262 24.2012C16.1647 23.2036 18.229 23.3298 19.5275 24.4934C20.717 25.5584 20.8484 27.2165 19.8404 28.4354C19.1644 29.2532 18.1063 29.72 16.9617 29.72C16.8545 29.72 16.7473 29.7165 16.6401 29.7079C15.3832 29.6128 14.2905 28.9679 13.7182 27.9841C13.4779 27.5726 13.3707 27.1231 13.3603 26.4851V26.4799Z" fill="white"/>
<path d="M18.8199 6.65928C18.6384 6.60223 18.424 6.57284 18.182 6.57284C17.0166 6.56938 14.195 6.56592 11.3958 6.56592C8.61915 6.56592 5.86148 6.56765 4.76015 6.57456C4.46795 6.57629 4.18614 6.62816 3.96656 6.72152C3.53432 6.90479 3.24559 7.27652 3.19372 7.71567C3.14185 8.16174 3.33895 8.59743 3.72451 8.87925C4.0046 9.085 4.34866 9.18182 4.80856 9.18182H7.93276C11.3163 9.18182 14.6999 9.18182 18.0834 9.18009C18.2857 9.18009 18.4828 9.16107 18.6712 9.1213C19.2574 9.00201 19.7086 8.51444 19.7415 7.96464C19.7778 7.3595 19.4164 6.84774 18.8199 6.65928Z" fill="white"/>
<path d="M17.1003 13.8569C17.2092 13.4298 17.0951 13.0546 16.7527 12.7088C16.4571 12.4097 16.0664 12.2766 15.4872 12.2766C15.4872 12.2766 15.4872 12.2766 15.4854 12.2766L10.5597 12.2783C7.78816 12.2783 5.01839 12.2783 2.24689 12.2818C2.0567 12.2818 1.85615 12.3008 1.65213 12.3354C1.1248 12.4288 0.664902 12.8817 0.583642 13.3918C0.493736 13.9537 0.759994 14.4499 1.27868 14.6868C1.54666 14.8095 1.86998 14.8804 2.1639 14.8839C4.39597 14.9011 13.2949 14.896 15.5114 14.889C15.6825 14.889 15.9332 14.8804 16.1528 14.813C16.668 14.6539 16.9758 14.3427 17.1003 13.8569Z" fill="white"/>
<path d="M13.4375 19.464C13.5084 18.8589 13.1194 18.2866 12.5108 18.1033C12.3292 18.048 12.1079 18.0221 11.833 18.0203C9.98132 18.0152 8.12962 18.0169 6.27791 18.0169H4.95527H4.8256C4.78238 18.0169 4.73915 18.0169 4.69766 18.0169C4.61294 18.0169 4.52995 18.0186 4.44869 18.0238C4.01299 18.0532 3.61188 18.2866 3.3802 18.6462C3.16754 18.9764 3.11913 19.3689 3.25053 19.7251C3.43898 20.2351 3.95248 20.5826 4.52822 20.5878C5.82666 20.5999 11.6688 20.6051 12.1736 20.5844C12.8012 20.5567 13.3666 20.0553 13.4375 19.464Z" fill="white"/>
</svg>
