<svg width="41" height="38" viewBox="0 0 41 38" fill="none" xmlns="http://www.w3.org/2000/svg">
<path d="M40.9909 30.2195C40.9926 29.461 40.9926 28.7042 40.9926 27.9457V27.2831C40.9943 26.7719 40.9943 26.2606 40.9909 25.751C40.9859 25.1692 40.5924 24.6646 40.034 24.5267C39.9331 24.5015 39.8322 24.4931 39.7246 24.4847C39.7094 24.483 39.6926 24.4813 39.6758 24.4813V19.2914C39.6758 14.6414 39.6758 9.99134 39.6741 5.3413C39.6741 4.47184 39.4605 3.68814 39.0384 3.01544C37.9907 1.33873 36.462 0.484403 34.4927 0.481039C28.213 0.465903 21.8291 0.467585 15.6554 0.467585C12.7594 0.467585 9.86173 0.469267 6.96407 0.467585H7.12215C6.3435 0.467585 5.59681 0.615579 4.90729 0.906522C2.94805 1.73394 1.78764 3.46615 1.80278 5.53807C1.82464 8.49627 1.81623 11.5049 1.8095 14.4144L1.80614 15.4654C1.80278 17.0059 2.90096 17.9326 3.92346 18.1394C4.32372 18.2202 4.58103 18.2336 4.98297 18.2471C5.14273 18.2521 5.30082 18.2572 5.4589 18.2656C5.59849 18.274 5.74144 18.2723 5.87934 18.2689C5.9012 18.2689 6.0307 18.2689 6.05256 18.2672V21.5399H5.6624C5.28064 21.5399 4.8972 21.5416 4.51544 21.5433C3.61907 21.5467 2.87405 21.5517 1.96254 21.5332C1.54547 21.5298 1.17716 21.6644 0.914811 21.9234C0.645731 22.1891 0.506146 22.5608 0.507828 22.9997C0.528009 25.8772 0.524645 28.8034 0.521282 31.6321C0.5196 32.6748 0.519601 33.7192 0.519601 34.7619V35.2328C0.517919 35.6162 0.517917 35.9996 0.522963 36.3814C0.531371 37.0625 0.886223 37.5031 1.54715 37.6528C1.72373 37.6932 1.91882 37.7117 2.14417 37.7117C13.612 37.7133 24.8949 37.7133 36.3628 37.7133H39.3109H39.395C39.4235 37.7133 39.4538 37.715 39.4824 37.715C39.511 37.715 39.5396 37.715 39.5699 37.7133C40.4595 37.6747 41.0078 37.1146 40.9993 36.2519C40.9842 34.2439 40.9876 32.1972 40.9909 30.2195ZM38.4952 26.94V35.2008H14.0661V26.94H38.4952ZM6.05761 26.5835C6.05929 27.1923 6.31828 27.6464 6.86653 27.8246C7.45009 28.013 7.83522 27.8818 8.21025 27.4984C8.42887 27.2747 8.53314 27.0006 8.53314 26.6609C8.52978 25.8704 8.53146 25.0783 8.53314 24.2879C8.53314 24.2038 8.53819 24.1181 8.54323 24.0306L8.54492 24.0003C8.57351 23.9953 8.69123 23.9919 8.71645 23.9919C9.51024 23.9902 10.3023 23.9902 11.0911 23.9902H11.5704L11.5872 35.2008H8.51969C8.51464 35.1234 8.4911 33.1844 8.51633 32.6311C8.53146 32.2931 8.41206 31.9718 8.17998 31.7229C7.9294 31.4539 7.69227 31.3025 7.30715 31.2941C6.95398 31.2891 6.67985 31.4135 6.43432 31.6523C6.18037 31.8978 6.03911 32.2426 6.03743 32.621C6.03238 33.1575 6.03406 33.694 6.03406 34.2304V35.2059H3.01868V24.0087H6.05592V24.969C6.05592 25.5089 6.05592 26.047 6.05761 26.5835ZM4.30354 5.42034C4.30186 3.99254 5.395 3.10457 6.47636 2.96499C6.77908 2.92631 7.08684 2.90612 7.38955 2.90612C15.5023 2.90276 25.132 2.90108 34.4624 2.90612C35.5236 2.90612 36.3325 3.31815 36.869 4.12876C37.1044 4.48697 37.2104 4.90909 37.2087 5.49939C37.2053 7.19291 37.2053 8.88475 37.2053 10.5783V24.478H24.8108V21.6896C24.8108 17.3574 24.8108 13.0269 24.8091 8.69135C24.8091 8.50468 24.8091 8.31128 24.7553 8.12796C24.6124 7.63689 24.1448 7.27868 23.5932 7.23832C23.5461 7.23495 23.499 7.23495 23.452 7.23664H23.4032H20.7746C17.8971 7.23664 15.018 7.23664 12.1405 7.23664C11.3871 7.23664 10.8489 7.64867 10.7379 8.30959C10.7194 8.41554 10.7211 8.52149 10.7211 8.62408V8.68967V15.2014V15.2805C10.7211 15.3494 10.7211 15.4184 10.7194 15.4856C10.711 15.7648 10.6858 15.7917 10.4201 15.7968C10.2468 15.8001 10.0753 15.8001 9.90209 15.7984H9.66664L4.73743 15.8001C4.34054 15.8001 4.30354 15.7631 4.30354 15.3545V11.964C4.30522 9.77776 4.3069 7.59989 4.30354 5.42034ZM14.0644 23.5496C14.0644 23.4723 14.0644 23.3949 14.0661 23.3159C14.0678 23.1056 14.0711 22.8887 14.0459 22.6734C13.9669 21.9957 13.496 21.5652 12.8149 21.5483C12.1977 21.5332 10.3965 21.5366 9.19407 21.5383H8.5466V18.2656H8.65927C8.75345 18.2656 8.8409 18.2656 8.92836 18.2656C9.12176 18.2622 9.31348 18.2622 9.50688 18.2605C9.94413 18.2588 10.2183 18.2572 10.6622 18.2235C11.8916 18.131 13.2118 17.09 13.2 15.5731C13.1899 14.2613 13.1933 12.926 13.1966 11.6344C13.1983 11.0778 13.1983 10.5211 13.2 9.96276V9.68359H22.3403V24.4679H14.0678V24.2644C14.0661 24.0256 14.0661 23.7868 14.0644 23.5496Z" fill="white"/>
<path d="M30.9153 14.0105C31.7746 14.0105 32.6374 13.7381 33.3336 13.1781C34.5142 12.2279 34.9128 10.7395 34.3477 9.38574C33.8045 8.08238 32.375 7.23646 30.7067 7.22974H30.7034C30.0206 7.24151 29.2638 7.50722 28.6281 7.95793C27.8461 8.51291 27.3533 9.32519 27.2406 10.2451C27.1313 11.1415 27.4004 12.0177 27.9974 12.7139C28.7323 13.5699 29.8204 14.0105 30.9153 14.0105ZM29.6758 10.6571C29.6708 10.3864 29.7969 10.1055 30.0239 9.88522C30.2695 9.64809 30.584 9.5186 30.9035 9.53037C31.556 9.55391 32.1177 10.0803 32.1059 10.6571C32.0942 11.2323 31.551 11.6981 30.8968 11.6981C30.8951 11.6981 30.8934 11.6981 30.8917 11.6981C30.2325 11.6965 29.6876 11.2289 29.6758 10.6571Z" fill="white"/>
<path d="M33.5805 18.242C33.335 18.1411 33.0793 18.1159 32.9078 18.1109C32.2452 18.0957 29.625 18.0991 28.9843 18.1075C28.7673 18.1109 28.5655 18.1361 28.3856 18.1832C27.9164 18.3076 27.5397 18.7415 27.4909 19.2141C27.4388 19.722 27.7028 20.1844 28.167 20.393C28.4041 20.5006 28.6782 20.5612 28.9422 20.5628C29.5594 20.5696 30.18 20.5729 30.7989 20.5729C31.3169 20.5729 31.8315 20.5713 32.3394 20.5696L32.8288 20.5679C32.9969 20.5679 33.1601 20.5511 33.3165 20.5208C33.8395 20.4182 34.2582 19.9877 34.3104 19.4966C34.3676 18.9332 34.0901 18.4522 33.5805 18.242Z" fill="white"/>
</svg>
